# AST/ASF file generated using VICON BodyLanguage
# -----------------------------------------------
:version 1.10
:name VICON
:units
  mass 1.0
  length 0.45
  angle deg
:documentation
   .ast/.asf automatically generated from VICON data using
   VICON BodyBuilder and BodyLanguage model FoxedUp or BRILLIANT.MOD
:root
   order TX TY TZ RX RY RZ
   axis XYZ
   position 0 0 0  
   orientation 0 0 0 
:bonedata
  begin
     id 1 
     name lhipjoint
     direction 0.57768 -0.667037 0.470475 
     length 2.36008 
     axis 0 0 0  XYZ
  end
  begin
     id 2 
     name lfemur
     direction 0.34202 -0.939693 0  
     length 6.97235  
     axis 0 0 20  XYZ
    dof rx ry rz
    limits (-160.0 20.0)
           (-70.0 70.0)
           (-60.0 70.0)
  end
  begin
     id 3 
     name ltibia
     direction 0.34202 -0.939693 0   
     length 6.93428   
     axis 0 0 20   XYZ
    dof rx
    limits (-10.0 170.0)
  end
  begin
     id 4 
     name lfoot
     direction 0.133018 -0.365463 0.921272   
     length 2.18603   
     axis -90 7.62852e-016 20   XYZ
    dof rx rz
    limits (-45.0 90.0)
           (-70.0 20.0)
  end
  begin
     id 5 
     name ltoes
     direction 1.53519e-011 -4.22055e-011 1   
     length 1.07924   
     axis -90 7.62852e-016 20   XYZ
    dof rx
    limits (-90.0 20.0)
  end
  begin
     id 6 
     name rhipjoint
     direction -0.577712 -0.667019 0.470462   
     length 2.36015  
     axis 0 0 0  XYZ 
  end
  begin
     id 7 
     name rfemur
     direction -0.34202 -0.939693 0   
     length 6.71195   
     axis 0 0 -20   XYZ
    dof rx ry rz
    limits (-160.0 20.0)
           (-70.0 70.0)
           (-70.0 60.0)
  end
  begin
     id 8 
     name rtibia
     direction -0.34202 -0.939693 0   
     length 7.04592   
     axis 0 0 -20   XYZ
    dof rx
    limits (-10.0 170.0)
 end
 begin
     id 9 
     name rfoot
     direction -0.113796 -0.312651 0.943027   
     length 2.03846  
     axis -90 -7.62852e-016 -20   XYZ
    dof rx rz
    limits (-45.0 90.0)
           (-20.0 70.0)
  end
  begin
     id 10 
     name rtoes
     direction -1.53586e-011 -4.218e-011 1   
     length 1.01562   
     axis -90 -7.62852e-016 -20   XYZ
    dof rx
    limits (-90.0 20.0)
  end
  begin
     id 11 
     name lowerback
     direction -0.0417299 0.991937 -0.119667   
     length 2.05257   
     axis 0 0 0   XYZ
    dof rx ry rz
    limits (-20.0 45.0)
           (-30.0 30.0)
           (-30.0 30.0)
  end
  begin
     id 12 
     name upperback
     direction -0.00017666 0.999999 0.00105178   
     length 2.05693   
     axis 0 0 0   XYZ
    dof rx ry rz
    limits (-20.0 45.0)
           (-30.0 30.0)
           (-30.0 30.0)
  end
  begin
     id 13 
     name thorax
     direction 0.0185169 0.998203 0.0569866   
     length 2.0932   
     axis 0 0 0   XYZ
    dof rx ry rz
    limits (-20.0 45.0)
           (-30.0 30.0)
           (-30.0 30.0)
  end
  begin
     id 14 
     name lowerneck
     direction -0.0212406 0.982645 0.184277   
     length 1.72509   
     axis 0 0 0   XYZ
    dof rx ry rz
    limits (-20.0 45.0)
           (-30.0 30.0)
           (-30.0 30.0)
  end
  begin
     id 15 
     name upperneck
     direction 0.00528579 0.965323 -0.261004   
     length 1.76294   
     axis 0 0 0   XYZ
    dof rx ry rz
    limits (-20.0 45.0)
           (-30.0 30.0)
           (-30.0 30.0)
  end
  begin
     id 16
     name head
     direction 0.00695421 0.994078 -0.108445  
     length 1.78678  
     axis 0 0 0   XYZ
    dof rx ry rz
    limits (-20.0 45.0)
           (-30.0 30.0)
           (-30.0 30.0)
  end
  begin
     id 17 
     name lclavicle
     direction 0.97277 0.211305 -0.095232  
     length 3.84823  
     axis 0 0 0   XYZ
    dof ry rz
    limits (-20.0 10.0)
           (0.0 20.0)
  end
  begin
     id 18 
     name lhumerus
     direction 1 -4.48957e-011 -1.98313e-027   
     length 4.97185   
     axis 180 -30 -90   XYZ
    dof rx ry rz
    limits (-60.0 90.0)
           (-90.0 90.0)
           (-90.0 90.0)
  end
  begin
     id 19
     name lradius
     direction 1 -4.4898e-011 7.31063e-027   
     length 3.35811   
     axis 180 -30 -90   XYZ
    dof rx
    limits (-10.0 170.0)
  end
  begin
     id 20
     name lwrist
     direction 1 -4.48938e-011 9.95048e-027   
     length 1.67905   
     axis -8.75986e-015 90 90   XYZ
    dof ry
    limits (-180.0 0.0)
 end
  begin
     id 21 
     name lhand
     direction 1 -4.4901e-011 1.9901e-026   
     length 0.622776   
     axis -1.26985e-014 90 90   XYZ
    dof rx rz
    limits (-90.0 90.0)
           (-45.0 45.0)
  end
  begin
     id 22 
     name lfingers
     direction 1 -4.48961e-011 3.98019e-026   
     length 0.502098   
     axis -2.5397e-014 90 90   XYZ
    dof rx
    limits (0.0 90.0)
  end
  begin
     id 23
     name lthumb
     direction 0.707107 -6.34933e-011 0.707107   
     length 0.720915   
     axis -90 45 2.85299e-015   XYZ
    dof rx rz
    limits (-45.0 45.0)
           (-45.0 45.0)
  end
  begin
     id 24 
     name rclavicle
     direction -0.990867 0.133739 -0.0172226   
     length 3.78845  
     axis 0 0 0   XYZ 
    dof ry rz
    limits (-10.0 20.0)
           (-20.0 0.0)
  end
  begin
     id 25 
     name rhumerus
     direction -1 -4.48972e-011 -1.99267e-027  
     length 4.96493   
     axis 180 30 90   XYZ
    dof rx ry rz
    limits (-90.0 60.0)
           (-90.0 90.0)
           (-90.0 90.0)
  end
  begin
     id 26 
     name rradius
     direction -1 -4.48969e-011 8.96093e-027   
     length 3.34929   
     axis 180 30 90   XYZ
    dof rx
    limits (-10.0 170.0)
  end
  begin
     id 27 
     name rwrist
     direction -1 -4.48953e-011 9.95048e-027   
     length 1.67464   
     axis -8.75986e-015 -90 -90   XYZ
    dof ry
    limits (-180.0 0.0)
  end
  begin
     id 28
     name rhand
     direction -1 -4.49001e-011 1.9901e-026   
     length 0.638041   
     axis -1.26985e-014 -90 -90   XYZ
    dof rx rz
    limits (-90.0 90.0)
           (-45.0 45.0)
  end
  begin
     id 29
     name rfingers
     direction -1 -4.48967e-011 3.98019e-026   
     length 0.514405   
     axis -2.5397e-014 -90 -90   XYZ
    dof rx
    limits (0.0 90.0)
  end
  begin
     id 30
     name rthumb
     direction -0.707107 -6.34904e-011 0.707107   
     length 0.738586   
     axis -90 -45 -2.85299e-015   XYZ
    dof rx rz
    limits (-45.0 45.0)
           (-45.0 45.0)
  end
:hierarchy
  begin
    root lhipjoint rhipjoint lowerback
    lhipjoint lfemur
    lfemur ltibia
    ltibia lfoot
    lfoot ltoes
    rhipjoint rfemur
    rfemur rtibia
    rtibia rfoot
    rfoot rtoes
    lowerback upperback
    upperback thorax
    thorax lowerneck lclavicle rclavicle
    lowerneck upperneck
    upperneck head
    lclavicle lhumerus
    lhumerus lradius
    lradius lwrist
    lwrist lhand lthumb
    lhand lfingers
    rclavicle rhumerus
    rhumerus rradius
    rradius rwrist
    rwrist rhand rthumb
    rhand rfingers
  end

#!OML:ASF E:\Mandelcareful walks\Project 1\Capture day 1\Session 1\Subject1.ASF
:FULLY-SPECIFIED
:DEGREES
43
root -4.04253 16.8847 -0.852156 51.4649 84.8508 48.8316
lowerback 2.15607 1.20293 -12.1068
upperback 3.37163 1.61234 -0.21737
thorax 2.02679 0.568499 6.55501
lowerneck -20.0022 3.39673 -0.102767
upperneck 33.3901 6.89789 -2.32939
head 15.095 2.85343 0.407651
rclavicle -2.38542e-015 2.08724e-014
rhumerus -28.4839 -4.23432 -82.3318
rradius 37.316
rwrist -13.6958
rhand -8.90481 -31.5864
rfingers 7.12502
rthumb 17.0381 -60.8592
lclavicle -2.38542e-015 2.08724e-014
lhumerus -27.9669 -5.62772 88.839
lradius 27.5777
lwrist 11.9141
lhand -20.9358 -10.6967
lfingers 7.12502
lthumb 5.43632 19.2135
rfemur -9.42476 -6.87973 4.70694
rtibia 32.9537
rfoot -10.0281 -6.39814
rtoes -7.00102
lfemur -7.64134 7.3771 -19.614
ltibia 21.1955
lfoot -17.765 17.082
ltoes 6.24286
44
root -4.03676 16.8947 -0.901807 49.2944 84.5889 46.609
lowerback 2.18266 1.11245 -12.3601
upperback 3.64623 1.51398 -0.17806
thorax 2.32153 0.486078 6.74364
lowerneck -20.5592 3.48509 -0.433113
upperneck 33.6788 7.14292 -2.21731
head 15.3429 2.90862 0.574452
rclavicle -9.64106e-015 -1.05356e-014
rhumerus -27.9926 -3.60359 -82.3602
rradius 37.7915
rwrist -14.07
rhand -8.85893 -31.9085
rfingers 7.12502
rthumb 17.0822 -61.1775
lclavicle -9.64106e-015 -1.05356e-014
lhumerus -27.2036 -4.66223 88.2592
lradius 27.5902
lwrist 11.7638
lhand -21.0055 -10.9585
lfingers 7.12502
lthumb 5.36904 18.9534
rfemur -10.3927 -7.28964 4.42995
rtibia 34.1246
rfoot -9.33424 -6.30063
rtoes -7.08438
lfemur -7.61149 7.50876 -19.8805
ltibia 21.207
lfoot -18.0505 17.1337
ltoes 7.08696
45
root -4.03058 16.9015 -0.943919 46.0263 84.5858 43.2886
lowerback 2.64501 1.11785 -12.2841
upperback 3.58294 1.4495 -0.155078
thorax 2.00641 0.477418 6.71592
lowerneck -20.7017 3.44724 -0.597897
upperneck 34.0835 7.14618 -2.05404
head 15.553 2.90426 0.682895
rclavicle -7.10655e-015 8.34896e-015
rhumerus -28.2199 -3.34979 -82.4281
rradius 38.5667
rwrist -14.1545
rhand -8.78788 -32.7834
rfingers 7.12502
rthumb 17.1506 -62.0465
lclavicle -7.10655e-015 8.34896e-015
lhumerus -26.9647 -3.97132 87.6413
lradius 27.6024
lwrist 11.5608
lhand -21.2649 -10.7293
lfingers 7.12502
lthumb 5.11856 19.1889
rfemur -11.1832 -7.65967 4.54445
rtibia 35.0073
rfoot -8.77296 -6.76462
rtoes -6.52185
lfemur -7.61757 7.70403 -19.7952
ltibia 21.3025
lfoot -18.3934 16.9672
ltoes 8.16941
46
root -4.02756 16.9037 -0.979767 43.8064 84.6366 40.9505
lowerback 2.96991 1.1077 -12.1827
upperback 3.58377 1.39164 -0.144999
thorax 1.83656 0.461459 6.66441
lowerneck -20.7875 3.36776 -0.771037
upperneck 34.3126 7.09707 -1.9739
head 15.6715 2.86753 0.743431
rclavicle 5.76476e-015 -6.36111e-015
rhumerus -28.4745 -3.18577 -82.4473
rradius 39.1998
rwrist -14.2484
rhand -8.81784 -32.3831
rfingers 7.12502
rthumb 17.1218 -61.6487
lclavicle 5.76476e-015 -6.36111e-015
lhumerus -26.529 -3.43907 87.0474
lradius 27.5114
lwrist 11.6371
lhand -21.7164 -10.6078
lfingers 7.12502
lthumb 4.68258 19.3204
rfemur -11.9069 -8.02576 4.69744
rtibia 35.4938
rfoot -8.86235 -7.48971
rtoes -6.24369
lfemur -7.83452 7.91078 -19.7255
ltibia 21.4911
lfoot -18.5034 16.8069
ltoes 8.31834
47
root -4.02531 16.901 -1.00938 42.6746 84.6147 39.7342
lowerback 3.27173 1.08616 -12.1921
upperback 3.69098 1.33106 -0.104014
thorax 1.79242 0.430127 6.71033
lowerneck -21.0501 3.3292 -1.05765
upperneck 34.4574 7.15837 -1.93913
head 15.7904 2.84982 0.828242
rclavicle 8.84592e-015 1.35174e-014
rhumerus -28.5354 -3.04717 -82.2954
rradius 39.2817
rwrist -14.3837
rhand -8.94692 -30.1536
rfingers 7.12502
rthumb 16.9975 -59.4299
lclavicle 8.84592e-015 1.35174e-014
lhumerus -25.8698 -2.89783 86.5646
lradius 27.3411
lwrist 11.9712
lhand -22.103 -10.9515
lfingers 7.12502
lthumb 4.30928 18.9846
rfemur -12.5247 -8.36086 4.75843
rtibia 35.5471
rfoot -9.56061 -8.2708
rtoes -7.54351
lfemur -8.07145 8.07532 -19.7653
ltibia 21.6981
lfoot -18.516 16.7806
ltoes 8.13958
48
root -4.02143 16.8961 -1.03535 42.4445 84.5769 39.514
lowerback 3.70179 1.08852 -12.1948
upperback 3.62421 1.26964 -0.147521
thorax 1.49295 0.42152 6.65907
lowerneck -20.7291 3.28644 -0.994925
upperneck 34.5633 7.14539 -2.07446
head 15.7784 2.84263 0.752454
rclavicle -1.04362e-015 -3.49861e-014
rhumerus -28.9936 -2.91874 -82.2947
rradius 40.0043
rwrist -14.5611
rhand -8.64735 -31.8224
rfingers 7.12502
rthumb 17.2859 -61.0736
lclavicle -1.04362e-015 -3.49861e-014
lhumerus -25.6903 -2.37387 85.9929
lradius 27.2403
lwrist 12.0589
lhand -22.3556 -10.3187
lfingers 7.12502
lthumb 4.06537 19.6223
rfemur -12.9053 -8.69475 4.72321
rtibia 35.17
rfoot -10.3288 -8.93307
rtoes -8.47312
lfemur -8.17966 8.16691 -19.8699
ltibia 21.8735
lfoot -18.5358 16.8353
ltoes 7.75512
49
root -4.01245 16.8957 -1.05436 42.5379 84.5675 39.6121
lowerback 4.16124 1.1001 -12.0978
upperback 3.60022 1.22479 -0.258516
thorax 1.22115 0.421308 6.4802
lowerneck -20.6954 3.22757 -0.850127
upperneck 34.7544 7.06188 -2.15314
head 15.8745 2.81463 0.681436
rclavicle -7.35503e-015 -1.55052e-014
rhumerus -29.3118 -2.97528 -82.3761
rradius 40.4308
rwrist -14.8609
rhand -8.62407 -32.5737
rfingers 7.12502
rthumb 17.3083 -61.823
lclavicle -7.35503e-015 -1.55052e-014
lhumerus -25.4863 -1.79249 85.2899
lradius 27.2732
lwrist 11.995
lhand -22.5162 -9.27013
lfingers 7.12502
lthumb 3.91032 20.6737
rfemur -13.1075 -8.90741 4.69257
rtibia 34.4117
rfoot -11.2572 -9.2299
rtoes -7.43483
lfemur -8.21147 8.28 -19.9452
ltibia 21.9943
lfoot -18.6199 16.728
ltoes 7.60828
50
root -4.00185 16.8981 -1.06789 42.4773 84.5577 39.463
lowerback 4.50578 1.17147 -11.8272
upperback 3.78807 1.30388 -0.431899
thorax 1.21688 0.464862 6.13703
lowerneck -21.3964 3.15978 -0.7691
upperneck 34.993 6.92096 -2.07478
head 16.1557 2.75208 0.694299
rclavicle -7.25564e-015 2.62396e-014
rhumerus -29.0534 -3.36175 -82.4676
rradius 40.5096
rwrist -15.1496
rhand -8.56704 -32.7662
rfingers 7.12502
rthumb 17.3632 -62.0107
lclavicle -7.25564e-015 2.62396e-014
lhumerus -24.6965 -1.47569 84.6245
lradius 27.2393
lwrist 12.1751
lhand -22.8106 -9.12203
lfingers 7.12502
lthumb 3.62599 20.8269
rfemur -13.4073 -9.00807 4.73026
rtibia 33.3679
rfoot -12.1392 -9.46684
rtoes -5.44675
lfemur -8.28953 8.48144 -19.9961
ltibia 22.058
lfoot -18.7 16.5562
ltoes 7.47469
51
root -3.99329 16.9007 -1.07693 42.3402 84.4337 39.2091
lowerback 4.72583 1.16657 -11.839
upperback 3.77024 1.26512 -0.415425
thorax 1.08178 0.453743 6.15892
lowerneck -21.1242 3.19567 -0.837958
upperneck 34.9776 7.05341 -2.18898
head 16.0894 2.78997 0.676813
rclavicle 1.46107e-014 0
rhumerus -29.2354 -3.12628 -82.3526
rradius 40.6079
rwrist -15.4599
rhand -8.29687 -32.5637
rfingers 7.12502
rthumb 17.6232 -61.785
lclavicle 1.46107e-014 0
lhumerus -24.4801 -0.762709 84.1924
lradius 27.2002
lwrist 12.2627
lhand -23.2351 -9.03088
lfingers 7.12502
lthumb 3.21608 20.9246
rfemur -13.8667 -8.90273 4.73816
rtibia 32.1469
rfoot -12.592 -10.0592
rtoes -4.16485
lfemur -8.41185 8.7638 -20.1163
ltibia 22.1167
lfoot -18.6965 16.5032
ltoes 6.8442
52
root -3.98601 16.8991 -1.07577 42.9908 84.313 39.7858
lowerback 5.03182 1.219 -11.791
upperback 3.91016 1.31144 -0.473691
thorax 1.0518 0.477574 6.0642
lowerneck -21.2678 3.14225 -1.00036
upperneck 34.9047 7.02186 -2.18301
head 16.0801 2.75115 0.702509
rclavicle 1.93815e-014 -1.27222e-014
rhumerus -29.2263 -3.22508 -82.2387
rradius 40.7644
rwrist -15.6226
rhand -8.0853 -32.3149
rfingers 7.12502
rthumb 17.8268 -61.5178
lclavicle 1.93815e-014 -1.27222e-014
lhumerus -24.0309 -0.346453 83.7477
lradius 27.303
lwrist 12.2077
lhand -23.3612 -8.91416
lfingers 7.12502
lthumb 3.09426 21.0431
rfemur -14.1705 -8.5102 4.66417
rtibia 30.8209
rfoot -13.2549 -10.7377
rtoes -4.08825
lfemur -8.5275 9.055 -20.2317
ltibia 22.2252
lfoot -18.6676 16.2872
ltoes 6.88047
